<svg xmlns="http://www.w3.org/2000/svg" viewBox="0 0 128 128" fill="none" role="img" aria-label="Lucida aperture logo">
  <!-- cream rounded-square ground + ink border: keeps the mark visible on any background -->
  <rect x="3" y="3" width="122" height="122" rx="26" fill="#FBF5E6" stroke="#22201D" stroke-width="3.5"/>
  <!-- aperture / progress-wheel mark (derived from proposed_logo.svg), inked + scaled to sit in the tile -->
  <g transform="translate(18.3 18.3) scale(0.72)" fill="#22201D">
    <path d="M4.8646 46.5988L25.266 52.5988C26.3337 52.8644 27.4014 52.3331 27.667 51.2654C29.0004 47.531 30.8649 44.0676 33.266 40.8644C33.9326 40.0623 33.7972 38.7289 33.0003 38.0622L16.735 24.3329C15.8027 23.5308 14.4694 23.6662 13.8027 24.5985C9.26626 30.4683 5.80271 36.9996 3.53191 43.9319C3.13607 45.135 3.80209 46.1977 4.8646 46.5988Z"/>
    <path d="M37.4012 33.5307C38.0679 34.3328 39.2658 34.463 40.2034 33.7963C43.4012 31.2651 46.7346 29.3952 50.469 28.0619C51.5367 27.6609 52.0679 26.5931 51.8023 25.5307L45.5315 5.26538C45.1304 4.19768 43.9326 3.53098 42.8648 3.93205C35.9326 6.33312 29.4008 9.93202 23.6675 14.5987C22.7352 15.2654 22.7352 16.7342 23.4019 17.531L37.4012 33.5307Z"/>
    <path d="M37.4013 91.1361C34.5992 88.334 32.068 85.1361 30.2034 81.6673C29.6722 80.735 28.6045 80.334 27.5368 80.735L8.33411 89.9329C7.26641 90.4641 6.86532 91.6673 7.40181 92.735C10.7352 99.2661 15.2664 105.136 20.7352 110.204C21.5372 111.006 22.8706 110.871 23.6674 110.069L37.5314 93.9329C38.3335 93.1361 38.1982 91.933 37.4013 91.1361Z"/>
    <path d="M81.136 29.9319C84.7349 31.7964 87.9381 34.0674 90.7349 36.9996C91.537 37.8017 92.7349 37.8017 93.5371 37.135L109.401 22.8697C110.203 22.0676 110.333 20.7342 109.536 19.9374C104.469 14.6041 98.4691 10.203 91.8018 6.86969C90.7341 6.33844 89.5362 6.86969 88.9997 7.93738L80.1976 27.2708C79.6663 28.3333 80.1985 29.4007 81.136 29.9319Z"/>
    <path d="M96.5986 44.7347C98.599 48.2035 100.067 51.9325 100.864 55.8024C101.13 56.8701 102.062 57.5368 103.13 57.4013L124.198 54.068C125.266 53.9326 126.062 52.7347 125.932 51.6669C124.463 44.3336 121.932 37.5309 118.068 31.1363C117.536 30.204 116.203 29.9383 115.135 30.4696L97.271 42.0685C96.3339 42.5998 96.0674 43.8024 96.5986 44.7347Z"/>
    <path d="M124.864 63.6667H103.667C102.599 63.6667 101.802 64.599 101.667 65.6667C101.531 69.6667 100.599 73.5312 99.2661 77.2656C98.8651 78.3333 99.2661 79.4011 100.333 79.7968L119.803 88.328C120.87 88.729 122.068 88.328 122.605 87.2603C125.407 80.328 126.87 73.1243 127.136 65.6616C127.001 64.5991 126.067 63.5312 124.864 63.6667Z"/>
    <path d="M115.265 96.8641L97.401 85.3953C96.4689 84.864 95.2658 85.1297 94.7346 85.9266C92.469 89.1244 89.5367 92.062 86.3335 94.3276C85.4012 94.9943 85.2658 96.1921 85.8022 97.1301L97.537 114.864C98.203 115.797 99.537 116.062 100.469 115.396C106.469 111.13 111.667 105.797 115.938 99.7971C116.469 98.7341 116.198 97.4001 115.265 96.8641Z"/>
    <path d="M80.3332 100.068C79.9322 99.1359 78.7343 98.5989 77.6665 98.9999C73.9321 100.469 70.0676 101.266 66.1977 101.531C65.13 101.667 64.1977 102.464 64.3332 103.531L64.5988 124.865C64.5988 126.063 65.5311 127 66.7343 126.865C74.2031 126.464 81.401 124.865 88.2036 122.063C89.2713 121.662 89.6724 120.328 89.2713 119.261L80.3332 100.068Z"/>
    <path d="M74.3333 25.1359L79.9322 4.60527C80.3332 3.53235 79.6666 2.33447 78.4686 2.06887C73.6665 1.00117 68.7342 0.334473 63.6659 0.334473C61.1347 0.334473 58.8638 0.469893 56.4681 0.735512C55.4004 0.870932 54.6035 1.93343 54.7337 3.00111L57.8014 24.0691C57.9368 25.1368 58.8691 25.8035 59.9369 25.8035C63.6713 25.5378 68.0723 25.8035 71.8014 26.4701C72.9993 26.866 74.0677 26.1984 74.3333 25.1359Z"/>
    <path d="M56.3334 101C52.4688 100.198 48.7344 98.8649 45.2656 96.9999C44.3333 96.4686 43.1302 96.7343 42.599 97.6669L31.2656 115.667C30.599 116.599 31 117.932 31.9323 118.469C38.3334 122.203 45.2656 124.734 52.599 126.068C53.6667 126.203 54.8646 125.401 55 124.333L57.9323 103.265C58.1979 102.198 57.401 101.266 56.3334 101Z"/>
    <path d="M26.7346 72.5986C25.8023 68.734 25.5367 64.734 25.8023 60.8642C25.9377 59.7965 25.1356 58.8642 24.0679 58.7287L2.99988 56.062C1.80196 55.9266 0.734283 56.7287 0.734283 57.9266C-0.0677967 65.1348 0.468663 72.4679 2.33322 79.6666C2.59884 80.7343 3.80202 81.401 4.86442 81.1354L25.2658 74.9999C26.4689 74.7343 27.0002 73.6663 26.7346 72.5986Z"/>
  </g>
</svg>
